# xmcd
#
# Track frame offsets: 
#        150
#        19900
#        43210
#        57512
#        75552
#        99547
#        123797
#        134042
#        152532
#        168127
#        183107
#        205205
#
# Disc length: 2962 seconds
#
# Revision: 3
# Processed by: cddbd v1.5.2PL0 Copyright (c) Steve Scherf et al.
# Submitted via: ExactAudioCopy v0.95b4
#
DISCID=9a0b900c
DTITLE=Cruel Sea - This Is Not The Way Home
DYEAR=1991
DGENRE=Rock
TTITLE0=It's Alright ('cause She Loves Me)
TTITLE1=Baby
TTITLE2=4
TTITLE3=Sure 'nuff
TTITLE4=Don't Sell It
TTITLE5=Cry For Me
TTITLE6=Fangin' Hoons
TTITLE7=This Is Not The Way Home
TTITLE8=Shadder
TTITLE9=I Feel
TTITLE10=You Are Gone
TTITLE11=High Plains Drifter
EXTD=
EXTT0=
EXTT1=
EXTT2=
EXTT3=
EXTT4=
EXTT5=
EXTT6=
EXTT7=
EXTT8=
EXTT9=
EXTT10=
EXTT11=
PLAYORDER=
